<?xml version="1.0" encoding="UTF-8" standalone="no"?>
<svg
   xmlns:dc="http://purl.org/dc/elements/1.1/"
   xmlns:cc="http://creativecommons.org/ns#"
   xmlns:rdf="http://www.w3.org/1999/02/22-rdf-syntax-ns#"
   xmlns:svg="http://www.w3.org/2000/svg"
   xmlns="http://www.w3.org/2000/svg"
   xmlns:sodipodi="http://sodipodi.sourceforge.net/DTD/sodipodi-0.dtd"
   xmlns:inkscape="http://www.inkscape.org/namespaces/inkscape"
   inkscape:version="1.0 (4035a4fb49, 2020-05-01)"
   sodipodi:docname="txt.svg"
   id="svg52"
   version="1.1"
   width="512pt"
   viewBox="-79 0 512 512"
   height="512pt">
  <metadata
     id="metadata58">
    <rdf:RDF>
      <cc:Work
         rdf:about="">
        <dc:format>image/svg+xml</dc:format>
        <dc:type
           rdf:resource="http://purl.org/dc/dcmitype/StillImage" />
        <dc:title></dc:title>
      </cc:Work>
    </rdf:RDF>
  </metadata>
  <defs
     id="defs56" />
  <sodipodi:namedview
     inkscape:current-layer="svg52"
     inkscape:window-maximized="1"
     inkscape:window-y="-9"
     inkscape:window-x="-9"
     inkscape:cy="341.33333"
     inkscape:cx="341.33333"
     inkscape:zoom="1.2158203"
     showgrid="false"
     id="namedview54"
     inkscape:window-height="1001"
     inkscape:window-width="1920"
     inkscape:pageshadow="2"
     inkscape:pageopacity="0"
     guidetolerance="10"
     gridtolerance="10"
     objecttolerance="10"
     borderopacity="1"
     bordercolor="#666666"
     pagecolor="#ffffff" />
  <path
     id="path2"
     fill="#e3e4d8"
     d="m353.101562 485.515625h-353.101562v-485.515625h273.65625l79.445312 79.449219zm0 0" />
  <path
     id="path4"
     fill="#d0cebd"
     d="m273.65625 0v79.449219h79.445312zm0 0" />
  <path
     id="path6"
     fill="#4e74ba"
     d="m0 353.101562h353.101562v158.898438h-353.101562zm0 0" />
  <g
     id="g38"
     fill="#a09893">
    <path
       id="path8"
       d="m123.585938 229.515625h-70.621094c-4.871094 0-8.828125-3.953125-8.828125-8.824219 0-4.875 3.957031-8.828125 8.828125-8.828125h70.621094c4.875 0 8.828124 3.953125 8.828124 8.828125 0 4.871094-3.953124 8.824219-8.828124 8.824219zm0 0" />
    <path
       id="path10"
       d="m247.171875 229.515625h-88.273437c-4.875 0-8.828126-3.953125-8.828126-8.824219 0-4.875 3.953126-8.828125 8.828126-8.828125h88.273437c4.875 0 8.828125 3.953125 8.828125 8.828125 0 4.871094-3.953125 8.824219-8.828125 8.824219zm0 0" />
    <path
       id="path12"
       d="m220.691406 264.828125h-97.105468c-4.871094 0-8.828126-3.957031-8.828126-8.828125s3.957032-8.828125 8.828126-8.828125h97.105468c4.871094 0 8.824219 3.957031 8.824219 8.828125s-3.953125 8.828125-8.824219 8.828125zm0 0" />
    <path
       id="path14"
       d="m300.136719 229.515625h-17.652344c-4.875 0-8.828125-3.953125-8.828125-8.824219 0-4.875 3.953125-8.828125 8.828125-8.828125h17.652344c4.875 0 8.828125 3.953125 8.828125 8.828125 0 4.871094-3.953125 8.824219-8.828125 8.824219zm0 0" />
    <path
       id="path16"
       d="m300.136719 264.828125h-44.136719c-4.871094 0-8.828125-3.957031-8.828125-8.828125s3.957031-8.828125 8.828125-8.828125h44.136719c4.875 0 8.828125 3.957031 8.828125 8.828125s-3.953125 8.828125-8.828125 8.828125zm0 0" />
    <path
       id="path18"
       d="m88.277344 264.828125h-35.3125c-4.871094 0-8.828125-3.957031-8.828125-8.828125s3.957031-8.828125 8.828125-8.828125h35.3125c4.871094 0 8.824218 3.957031 8.824218 8.828125s-3.953124 8.828125-8.824218 8.828125zm0 0" />
    <path
       id="path20"
       d="m123.585938 300.136719h-70.621094c-4.871094 0-8.828125-3.953125-8.828125-8.828125 0-4.871094 3.957031-8.824219 8.828125-8.824219h70.621094c4.875 0 8.828124 3.953125 8.828124 8.824219 0 4.875-3.953124 8.828125-8.828124 8.828125zm0 0" />
    <path
       id="path22"
       d="m247.171875 300.136719h-88.273437c-4.875 0-8.828126-3.953125-8.828126-8.828125 0-4.871094 3.953126-8.824219 8.828126-8.824219h88.273437c4.875 0 8.828125 3.953125 8.828125 8.824219 0 4.875-3.953125 8.828125-8.828125 8.828125zm0 0" />
    <path
       id="path24"
       d="m300.136719 300.136719h-17.652344c-4.875 0-8.828125-3.953125-8.828125-8.828125 0-4.871094 3.953125-8.824219 8.828125-8.824219h17.652344c4.875 0 8.828125 3.953125 8.828125 8.824219 0 4.875-3.953125 8.828125-8.828125 8.828125zm0 0" />
    <path
       id="path26"
       d="m300.136719 194.207031h-70.621094c-4.871094 0-8.824219-3.953125-8.824219-8.828125 0-4.871094 3.953125-8.828125 8.824219-8.828125h70.621094c4.875 0 8.828125 3.957031 8.828125 8.828125 0 4.875-3.953125 8.828125-8.828125 8.828125zm0 0" />
    <path
       id="path28"
       d="m194.207031 194.207031h-88.277343c-4.871094 0-8.828126-3.953125-8.828126-8.828125 0-4.871094 3.957032-8.828125 8.828126-8.828125h88.277343c4.871094 0 8.828125 3.957031 8.828125 8.828125 0 4.875-3.957031 8.828125-8.828125 8.828125zm0 0" />
    <path
       id="path30"
       d="m229.515625 158.898438h-97.101563c-4.875 0-8.828124-3.957032-8.828124-8.828126 0-4.875 3.953124-8.828124 8.828124-8.828124h97.101563c4.875 0 8.828125 3.953124 8.828125 8.828124 0 4.871094-3.953125 8.828126-8.828125 8.828126zm0 0" />
    <path
       id="path32"
       d="m70.621094 194.207031h-17.65625c-4.871094 0-8.828125-3.953125-8.828125-8.828125 0-4.871094 3.957031-8.828125 8.828125-8.828125h17.65625c4.871094 0 8.828125 3.957031 8.828125 8.828125 0 4.875-3.957031 8.828125-8.828125 8.828125zm0 0" />
    <path
       id="path34"
       d="m97.101562 158.898438h-44.136718c-4.871094 0-8.828125-3.957032-8.828125-8.828126 0-4.875 3.957031-8.828124 8.828125-8.828124h44.136718c4.875 0 8.828126 3.953124 8.828126 8.828124 0 4.871094-3.953126 8.828126-8.828126 8.828126zm0 0" />
    <path
       id="path36"
       d="m300.136719 158.898438h-35.308594c-4.875 0-8.828125-3.957032-8.828125-8.828126 0-4.875 3.953125-8.828124 8.828125-8.828124h35.308594c4.875 0 8.828125 3.953124 8.828125 8.828124 0 4.871094-3.953125 8.828126-8.828125 8.828126zm0 0" />
  </g>
  <path
     id="path40"
     fill="#fff"
     d="m105.929688 397.242188h-52.964844c-4.871094 0-8.828125-3.957032-8.828125-8.828126 0-4.875 3.957031-8.828124 8.828125-8.828124h52.964844c4.875 0 8.828124 3.953124 8.828124 8.828124 0 4.871094-3.953124 8.828126-8.828124 8.828126zm0 0" />
  <path
     id="path42"
     fill="#fff"
     d="m79.449219 485.515625c-4.875 0-8.828125-3.953125-8.828125-8.824219v-88.277344c0-4.875 3.953125-8.828124 8.828125-8.828124 4.871093 0 8.828125 3.953124 8.828125 8.828124v88.277344c0 4.871094-3.957032 8.824219-8.828125 8.824219zm0 0" />
  <path
     id="path44"
     fill="#fff"
     d="m150.058594 485.515625c-1.542969 0-3.113282-.40625-4.527344-1.261719-4.183594-2.507812-5.535156-7.925781-3.027344-12.109375l52.964844-88.277343c2.507812-4.183594 7.9375-5.535157 12.113281-3.027344 4.183594 2.507812 5.535157 7.925781 3.027344 12.113281l-52.964844 88.273437c-1.660156 2.761719-4.582031 4.289063-7.585937 4.289063zm0 0" />
  <path
     id="path46"
     fill="#fff"
     d="m203.042969 485.515625c-3 0-5.921875-1.527344-7.574219-4.28125l-52.964844-88.273437c-2.507812-4.183594-1.15625-9.605469 3.027344-12.113282 4.175781-2.515625 9.605469-1.15625 12.113281 3.027344l52.964844 88.277344c2.507813 4.183594 1.15625 9.605468-3.027344 12.113281-1.421875.84375-2.992187 1.25-4.539062 1.25zm0 0" />
  <path
     id="path48"
     fill="#fff"
     d="m300.136719 397.242188h-52.964844c-4.871094 0-8.828125-3.957032-8.828125-8.828126 0-4.875 3.957031-8.828124 8.828125-8.828124h52.964844c4.875 0 8.828125 3.953124 8.828125 8.828124 0 4.871094-3.953125 8.828126-8.828125 8.828126zm0 0" />
  <path
     id="path50"
     fill="#fff"
     d="m273.65625 485.515625c-4.875 0-8.828125-3.953125-8.828125-8.824219v-88.277344c0-4.875 3.953125-8.828124 8.828125-8.828124 4.871094 0 8.828125 3.953124 8.828125 8.828124v88.277344c0 4.871094-3.957031 8.824219-8.828125 8.824219zm0 0" />
</svg>
