<?xml version="1.0" encoding="utf-8"?>
<!-- Generator: Adobe Illustrator 23.0.2, SVG Export Plug-In . SVG Version: 6.00 Build 0)  -->
<svg version="1.1" id="Слой_1" xmlns="http://www.w3.org/2000/svg" xmlns:xlink="http://www.w3.org/1999/xlink" x="0px" y="0px"
	 viewBox="0 0 3500 2000" style="enable-background:new 0 0 3500 2000;" xml:space="preserve">
<style type="text/css">
	.st0{fill:#FFFFFF;}
	.st1{fill:#E6F6FA;}
	.st2{fill:#63ACC2;}
	.st3{opacity:0.7;fill:#9EC8FF;}
	.st4{opacity:0.8;}
	.st5{fill:#9EC8FF;}
	.st6{fill:#F37168;}
	.st7{opacity:0.7;}
	.st8{fill:#9CD499;}
	.st9{fill:#74B570;}
	.st10{fill:#232E4F;}
	.st11{fill:#FACF50;}
	.st12{fill:#E0B03E;}
	.st13{fill:#3E6BAB;}
	.st14{fill:#1C447A;}
	.st15{fill:#BFE6F2;}
	.st16{fill:#2E5B9A;}
	.st17{fill:#D54A41;}
	.st18{fill:#993341;}
	.st19{fill:#DBE5EB;}
	.st20{fill:#F09959;}
	.st21{fill:#E38540;}
	.st22{fill:#3A384D;}
	.st23{fill:#303C60;}
	.st24{fill:#394873;}
	.st25{fill:#F2F2F2;}
	.st26{fill:#0F2D5C;}
	.st27{fill:#0E3A82;}
	.st28{fill:#368DA8;}
	.st29{fill:#153F9C;}
</style>
<rect class="st0" width="3500" height="2000"/>
<g>
	<path class="st1" d="M500.97,1748.68c-660.42-484.38-300.46-785.97-18.53-842.14c281.93-56.16,204.88-405.22,407.9-590.09
		c131.98-120.18,533.94-224.05,998.83,46.96c464.89,271.01,1039.63,256.12,1256.73,397.67
		c275.94,179.91,287.94,599.57,100.92,797.12c-204.91,216.44-286.88,209.29-286.88,209.29L500.97,1748.68z"/>
	<g>
		<rect x="396.05" y="272.02" class="st0" width="760.03" height="1088"/>
		<g>
			<path class="st2" d="M1161.08,1365.02H391.05v-1098h770.03V1365.02z M401.05,1355.02h750.03v-1078H401.05V1355.02z"/>
		</g>
		<path class="st3" d="M1079.37,562.86H611.76c-5,0-9.09-4.09-9.09-9.09v-1.22c0-5,4.09-9.09,9.09-9.09h467.61
			c5,0,9.09,4.09,9.09,9.09v1.22C1088.46,558.77,1084.37,562.86,1079.37,562.86z"/>
		<path class="st3" d="M1079.37,597.62H611.76c-5,0-9.09-4.09-9.09-9.09v-1.22c0-5,4.09-9.09,9.09-9.09h467.61
			c5,0,9.09,4.09,9.09,9.09v1.22C1088.46,593.53,1084.37,597.62,1079.37,597.62z"/>
		<path class="st3" d="M1079.37,698.16H611.76c-5,0-9.09-4.09-9.09-9.09v-1.22c0-5,4.09-9.09,9.09-9.09h467.61
			c5,0,9.09,4.09,9.09,9.09v1.22C1088.46,694.07,1084.37,698.16,1079.37,698.16z"/>
		<path class="st3" d="M1079.37,732.93H611.76c-5,0-9.09-4.09-9.09-9.09v-1.22c0-5,4.09-9.09,9.09-9.09h467.61
			c5,0,9.09,4.09,9.09,9.09v1.22C1088.46,728.84,1084.37,732.93,1079.37,732.93z"/>
		<path class="st3" d="M1079.37,857.42H611.76c-5,0-9.09-4.09-9.09-9.09v-1.22c0-5,4.09-9.09,9.09-9.09h467.61
			c5,0,9.09,4.09,9.09,9.09v1.22C1088.46,853.33,1084.37,857.42,1079.37,857.42z"/>
		<path class="st3" d="M1079.37,892.19H611.76c-5,0-9.09-4.09-9.09-9.09v-1.22c0-5,4.09-9.09,9.09-9.09h467.61
			c5,0,9.09,4.09,9.09,9.09v1.22C1088.46,888.1,1084.37,892.19,1079.37,892.19z"/>
		<path class="st3" d="M1079.37,981.78H611.76c-5,0-9.09-4.09-9.09-9.09v-1.22c0-5,4.09-9.09,9.09-9.09h467.61
			c5,0,9.09,4.09,9.09,9.09v1.22C1088.46,977.69,1084.37,981.78,1079.37,981.78z"/>
		<path class="st3" d="M1079.37,1016.55H611.76c-5,0-9.09-4.09-9.09-9.09v-1.22c0-5,4.09-9.09,9.09-9.09h467.61
			c5,0,9.09,4.09,9.09,9.09v1.22C1088.46,1012.46,1084.37,1016.55,1079.37,1016.55z"/>
		<g>
			<g class="st4">
				<path class="st5" d="M512.1,610.48h-31c-13.48,0-24.44-10.96-24.44-24.44v-31c0-13.48,10.96-24.44,24.44-24.44h31
					c13.48,0,24.44,10.96,24.44,24.44v31C536.54,599.52,525.58,610.48,512.1,610.48z M481.1,544.6c-5.76,0-10.44,4.68-10.44,10.44
					v31c0,5.76,4.68,10.44,10.44,10.44h31c5.76,0,10.44-4.68,10.44-10.44v-31c0-5.76-4.68-10.44-10.44-10.44H481.1z"/>
			</g>
			<g class="st4">
				<path class="st5" d="M512.1,742.25h-31c-13.48,0-24.44-10.96-24.44-24.44v-31c0-13.48,10.96-24.44,24.44-24.44h31
					c13.48,0,24.44,10.96,24.44,24.44v31C536.54,731.28,525.58,742.25,512.1,742.25z M481.1,676.36c-5.76,0-10.44,4.68-10.44,10.44
					v31c0,5.76,4.68,10.44,10.44,10.44h31c5.76,0,10.44-4.68,10.44-10.44v-31c0-5.76-4.68-10.44-10.44-10.44H481.1z"/>
			</g>
			<g>
				<path class="st6" d="M498.54,723.81c-0.1,0-0.19,0-0.29-0.01c-1.76-0.09-3.4-0.94-4.47-2.34l-22.28-29.07
					c-2.02-2.63-1.52-6.4,1.11-8.41c2.63-2.02,6.4-1.52,8.41,1.11l17.97,23.44l49.42-52.95c2.26-2.42,6.06-2.55,8.48-0.29
					c2.42,2.26,2.55,6.06,0.29,8.48l-54.26,58.13C501.79,723.12,500.2,723.81,498.54,723.81z"/>
			</g>
			<g>
				<path class="st5" d="M512.1,897.47h-31c-12.92,0-23.44-10.51-23.44-23.44v-31c0-12.92,10.52-23.44,23.44-23.44h31
					c12.92,0,23.44,10.51,23.44,23.44v31C535.54,886.96,525.03,897.47,512.1,897.47z M481.1,831.59c-6.31,0-11.44,5.13-11.44,11.44
					v31c0,6.31,5.13,11.44,11.44,11.44h31c6.31,0,11.44-5.13,11.44-11.44v-31c0-6.31-5.13-11.44-11.44-11.44H481.1z"/>
			</g>
			<g class="st4">
				<path class="st5" d="M512.1,1030.24h-31c-13.48,0-24.44-10.96-24.44-24.44v-31c0-13.48,10.96-24.44,24.44-24.44h31
					c13.48,0,24.44,10.96,24.44,24.44v31C536.54,1019.27,525.58,1030.24,512.1,1030.24z M481.1,964.35
					c-5.76,0-10.44,4.68-10.44,10.44v31c0,5.76,4.68,10.44,10.44,10.44h31c5.76,0,10.44-4.68,10.44-10.44v-31
					c0-5.76-4.68-10.44-10.44-10.44H481.1z"/>
			</g>
		</g>
		<g class="st7">
			<path class="st2" d="M682.42,356.41l-37.21,85.97h-19.65l-37.09-85.97h21.49l26.16,61.41l26.53-61.41H682.42z"/>
			<path class="st2" d="M712.2,438.08c-7.17-3.85-12.77-9.15-16.83-15.9c-4.05-6.75-6.08-14.35-6.08-22.78
				c0-8.43,2.03-16.03,6.08-22.78c4.05-6.75,9.66-12.05,16.83-15.9c7.16-3.85,15.21-5.77,24.13-5.77c8.92,0,16.95,1.92,24.07,5.77
				c7.12,3.85,12.73,9.15,16.83,15.9c4.09,6.75,6.14,14.35,6.14,22.78c0,8.43-2.05,16.03-6.14,22.78
				c-4.09,6.75-9.7,12.06-16.83,15.9c-7.12,3.85-15.15,5.77-24.07,5.77C727.41,443.86,719.36,441.93,712.2,438.08z M750.09,423.41
				c4.09-2.33,7.31-5.59,9.64-9.76c2.33-4.18,3.5-8.92,3.5-14.25c0-5.32-1.17-10.07-3.5-14.25c-2.33-4.18-5.55-7.43-9.64-9.76
				c-4.1-2.33-8.68-3.5-13.76-3.5c-5.08,0-9.66,1.17-13.75,3.5c-4.09,2.33-7.31,5.59-9.64,9.76c-2.33,4.18-3.5,8.93-3.5,14.25
				c0,5.32,1.17,10.07,3.5,14.25c2.33,4.18,5.55,7.43,9.64,9.76c4.09,2.33,8.68,3.5,13.75,3.5
				C741.41,426.91,745.99,425.74,750.09,423.41z"/>
			<path class="st2" d="M821.07,372.62h-27.51v-16.21h74.92v16.21h-27.51v69.76h-19.9V372.62z"/>
			<path class="st2" d="M951.87,426.42v15.97H885.3v-85.97h64.97v15.97h-45.2v18.67h39.91v15.47h-39.91v19.9H951.87z"/>
		</g>
	</g>
	<g>
		<g>
			<path class="st0" d="M2950.46,430.47c-6.28-0.09-12.45,0.15-18.47,0.69c0.35-3.4,0.56-6.84,0.61-10.31
				c1.15-80.31-79.22-146.58-179.53-148.02c-82.23-1.18-152.32,41.59-175.54,101.29c-17.24-6.56-36.41-10.36-56.66-10.65
				c-76.41-1.1-139.07,48.09-139.95,109.87c-0.89,61.78,60.33,112.74,136.74,113.84c51.65,0.74,386.07-0.64,430.58,0
				c64.97,0.93,118.13-35.54,118.74-78.05C3067.61,466.62,3015.43,431.4,2950.46,430.47z"/>
			<path class="st2" d="M2749.75,282.8c1.05,0,2.12,0.01,3.18,0.02c94.63,1.36,170.74,63.21,169.67,137.88
				c-0.04,3.07-0.23,6.24-0.56,9.44l-1.23,12.05l12.06-1.07c4.98-0.44,10.03-0.67,15.02-0.67c0.81,0,1.62,0.01,2.43,0.02
				c29.5,0.42,56.99,8.25,77.41,22.03c19.12,12.91,29.51,29.42,29.27,46.49c-0.24,17.09-10.92,33.66-30.05,46.65
				c-20.48,13.91-47.57,21.57-76.26,21.57c-0.76,0-1.53-0.01-2.29-0.02c-8.21-0.12-26.71-0.18-56.53-0.18
				c-38.78,0-90.68,0.09-145.62,0.19c-56.01,0.1-113.92,0.21-158.01,0.21c-36.87,0-59.91-0.07-70.43-0.22
				c-70.77-1.02-127.69-47.53-126.89-103.7c0.38-26.48,13.54-51.41,37.07-70.19c24.11-19.25,56.21-29.85,90.38-29.85
				c0.78,0,1.57,0.01,2.36,0.02c18.62,0.27,36.53,3.63,53.24,9.99l9.28,3.53l3.6-9.25c5.23-13.44,13.08-26.11,23.36-37.66
				c10.24-11.51,22.63-21.64,36.84-30.13C2676.82,292.19,2712.33,282.8,2749.75,282.8L2749.75,282.8z M2749.75,272.8
				c-80.8,0-149.31,42.41-172.22,101.32c-17.24-6.56-36.41-10.36-56.66-10.65c-0.83-0.01-1.67-0.02-2.5-0.02
				c-75.27,0-136.57,48.79-137.45,109.89c-0.89,61.78,60.34,112.74,136.74,113.84c11.54,0.17,37.2,0.23,70.58,0.23
				c86.34,0,224.38-0.4,303.63-0.4c27.25,0,47.54,0.05,56.38,0.17c0.81,0.01,1.63,0.02,2.44,0.02c63.86,0,115.7-36.09,116.31-78.07
				c0.61-42.51-51.56-77.73-116.53-78.66c-0.86-0.01-1.72-0.02-2.57-0.02c-5.39,0-10.7,0.24-15.9,0.7c0.35-3.4,0.56-6.84,0.61-10.31
				c1.15-80.31-79.22-146.58-179.53-148.02C2751.97,272.81,2750.85,272.8,2749.75,272.8L2749.75,272.8z"/>
		</g>
		<g>
			<path class="st0" d="M3174.05,559.59c-3.92-0.06-7.77,0.09-11.53,0.43c0.22-2.13,0.35-4.27,0.38-6.44
				c0.72-50.14-49.46-91.52-112.09-92.42c-51.34-0.74-95.1,25.97-109.6,63.24c-10.76-4.1-22.74-6.47-35.37-6.65
				c-47.71-0.68-86.83,30.03-87.38,68.6c-0.55,38.57,37.67,70.39,85.38,71.08c32.25,0.46,241.04-0.4,268.84,0
				c40.56,0.58,73.76-22.19,74.14-48.73C3247.19,582.16,3214.62,560.17,3174.05,559.59z"/>
			<path class="st2" d="M3048.74,471.15c0.64,0,1.29,0,1.93,0.01c28.02,0.4,54.16,9.44,73.58,25.46
				c18.78,15.48,28.96,35.66,28.65,56.81c-0.03,1.81-0.14,3.68-0.33,5.57l-1.23,12.05l12.06-1.07c3-0.27,6.04-0.4,9.04-0.4
				c0.49,0,0.98,0,1.46,0.01c34.39,0.49,63.2,18.34,62.9,38.97c-0.13,9.27-6.37,18.78-17.12,26.07
				c-12.17,8.27-28.33,12.82-45.5,12.82c-0.46,0-0.92,0-1.38-0.01c-5.15-0.07-16.71-0.11-35.35-0.11c-24.22,0-56.62,0.06-90.93,0.12
				c-34.97,0.06-71.12,0.13-98.65,0.13c-23.01,0-37.37-0.05-43.92-0.14c-42.12-0.6-75.99-27.94-75.52-60.94
				c0.22-15.39,7.94-29.93,21.73-40.94c14.39-11.49,33.6-17.81,54.09-17.81c0.47,0,0.95,0,1.42,0.01
				c11.18,0.16,21.94,2.18,31.96,5.99l9.28,3.53l3.6-9.25c6.19-15.92,18.98-30.29,36.01-40.46
				C3004.54,476.82,3026.05,471.14,3048.74,471.15L3048.74,471.15z M3048.74,461.15c-50.45,0-93.22,26.48-107.53,63.26
				c-10.76-4.1-22.74-6.47-35.37-6.65c-0.52-0.01-1.04-0.01-1.56-0.01c-47,0-85.27,30.46-85.82,68.61
				c-0.55,38.57,37.67,70.39,85.38,71.08c7.2,0.1,23.23,0.14,44.07,0.14c53.91,0,140.1-0.25,189.57-0.25
				c17.01,0,29.68,0.03,35.2,0.11c0.51,0.01,1.02,0.01,1.52,0.01c39.87,0,72.24-22.53,72.62-48.74
				c0.38-26.54-32.19-48.53-72.76-49.11c-0.54-0.01-1.07-0.01-1.61-0.01c-3.37,0-6.68,0.15-9.93,0.44c0.22-2.13,0.35-4.27,0.38-6.44
				c0.72-50.14-49.46-91.52-112.09-92.42C3050.12,461.15,3049.43,461.15,3048.74,461.15L3048.74,461.15z"/>
		</g>
	</g>
	<path class="st8" d="M384.05,1765.69c0,0-209.15-222.35-128.57-238.01c80.57-15.66,165.21,186.1,172.89,165.22
		c7.68-20.88-56.32-246.48-20.32-251.68s96.13,256.24,96.13,256.24s8.55-136.31,74.21-164.87c65.66-28.57-15.8,228.4-15.8,228.4
		L384.05,1765.69z"/>
	<g>
		<path class="st8" d="M2284.05,1498.24c187.78-132.39,237.99-196.39,288.55-405.33c50.56-208.94,283.63-461.27,183.4-418.57
			c-100.23,42.7-273.44,227.04-266.44,405.93c7,178.89-18.99,230.39-48.47,271.45c-29.48,41.06-155.86,132.13-155.86,132.13
			L2284.05,1498.24z"/>
		<path class="st9" d="M2400.84,1408.78c0.66-0.57,1.3-1.14,1.95-1.71c11.27-14.93,68.76-92.14,82.2-131.69
			c14.92-43.9,2.96-157.57,49.26-240.04c46.3-82.47,67.89-160.44,89.93-219.62c29.1-78.13,113.28-137.32,156.36-141.09
			c-0.17-0.8-0.44-1.5-0.81-2.11l-10.61-2.52c-3.5,0.66-7.85,2.08-13.12,4.33c-100.23,42.7-273.44,227.04-266.44,405.93
			c7,178.89-18.99,230.39-48.47,271.45c-7.95,11.08-22.96,25.79-40.63,41.38L2400.84,1408.78z"/>
	</g>
	<g>
		<path class="st8" d="M2535.64,1227.68c54.18-213.85,629.95-442.16,577.68-375.56s-191.3,227.15-348.49,287.83
			c-157.19,60.68-217.08,148.82-255.2,256.49C2471.51,1504.12,2481.46,1441.53,2535.64,1227.68z"/>
		<g>
			<path class="st9" d="M2442.64,1483.19c-4.21,0-7.33-0.88-7.57-0.95c-1.59-0.46-2.51-2.13-2.05-3.72
				c0.46-1.59,2.12-2.51,3.72-2.05c0.08,0.02,8.9,2.45,15.55-1.83c4.02-2.59,6.56-7.21,7.55-13.74
				c6.38-42.01,20.68-74.01,33.31-102.25c7.75-17.32,14.44-32.28,18.12-46.9c5.3-21.02,20.71-58.05,48.05-98.9
				c33.39-49.9,76.93-93.69,125.91-126.64c57.58-38.73,98.4-60.69,154.9-91.07c55.82-30.02,125.3-67.38,241.34-136.82
				c1.42-0.85,3.26-0.39,4.11,1.03c0.85,1.42,0.39,3.26-1.03,4.11c-116.16,69.51-185.7,106.9-241.57,136.95
				c-56.35,30.3-97.06,52.2-154.4,90.76c-114.1,76.75-162.48,186.3-171.5,222.03c-3.82,15.13-10.93,31.04-18.46,47.88
				c-12.47,27.88-26.6,59.49-32.86,100.7c-1.26,8.33-4.72,14.36-10.28,17.91C2451.21,1482.46,2446.48,1483.19,2442.64,1483.19z"/>
		</g>
		<g>
			<path class="st9" d="M2849.56,1001.53c-5.77,0-9.12-0.23-9.45-0.26c-1.65-0.12-2.89-1.56-2.77-3.21s1.56-2.88,3.21-2.77
				c0.81,0.06,82.11,5.36,157.9-41.82c1.41-0.88,3.26-0.45,4.13,0.96c0.88,1.41,0.45,3.26-0.96,4.13
				c-40.51,25.21-82.22,35.48-110.08,39.66C2873.19,1000.97,2858.48,1001.53,2849.56,1001.53z"/>
		</g>
		<g>
			<path class="st9" d="M2829.62,1064.88c-51.8,0-82.93-9.97-83.36-10.11c-1.57-0.52-2.43-2.21-1.91-3.79s2.21-2.43,3.79-1.92
				c0.58,0.19,59,18.83,149.42,4.25c1.63-0.27,3.18,0.85,3.44,2.48c0.26,1.64-0.85,3.18-2.48,3.44
				C2872.84,1063.38,2849.68,1064.88,2829.62,1064.88z"/>
		</g>
	</g>
	<path class="st8" d="M896.47,1760.99c0,0-191.66-196.03-165.78-233.12c44.55-63.85,234.25,157.19,234.25,157.19
		s-265.7-595.03-216.89-723.71c48.81-128.68,247.74,285.13,247.74,285.13s190.93-921.8,275.6-910.13
		c84.67,11.67,41.22,480.45,41.22,480.45l576.57-208.79c0,0,250.88-241.72,310.88-204.86c60,36.86-106.26,263.96-81.13,254.41
		c25.13-9.55,283.87-291.03,360.5-230.29c76.63,60.74-306.64,315.62-306.64,315.62l256.72,864.28c0,0,206.58-447.99,437.41-401.32
		c118.29,23.92-243.04,352.15-243.04,352.15s226.33-165.13,315.38-116.78s-247.26,172.04-203.17,190.2
		c44.09,18.16-95,108.15-95,108.15s109.81-67.15,158.39-39.35c48.58,27.8,32.5,65.46,32.5,65.46L896.47,1760.99z"/>
	<path class="st8" d="M3067,1760.99c0,0,13.05-258.16,65.05-247.57c52,10.6-12,193.47,0,184.03s118.4-307.19,179.2-256.31
		c60.8,50.88-122.12,229.89-122.12,229.89s93.32-64.21,122.12-39.61s-95.2,129.57-95.2,129.57H3067z"/>
	<g>
		<g>
			<path class="st8" d="M924.47,1543.52c-0.18-5.1-126.41-250.99-242.5-224.91c-116.08,26.08-132.2,61.4-212.36,77.53
				c-57.19,11.5-104.91,9.85-104.91,9.85s55.86,62.22,165.47,55.45c77.49-4.79,155.28-73.46,211.61-84.14
				c56.34-10.68,125.91,92.62,125.91,92.62l31.09,55.61L924.47,1543.52z"/>
			<g>
				<path class="st9" d="M888.11,1472.19c-0.92,0-1.82-0.42-2.41-1.21c-65.25-87.71-119.03-132.81-169.25-141.92
					c-44.13-8.01-79.79,12.99-117.54,35.21c-9.54,5.62-19.4,11.42-29.4,16.72c-87.59,46.45-139.7,40.81-141.87,40.55
					c-1.64-0.2-2.82-1.69-2.62-3.34c0.2-1.65,1.69-2.82,3.34-2.62c0.51,0.06,52.62,5.56,138.34-39.89
					c9.88-5.24,19.69-11.01,29.17-16.59c38.74-22.81,75.33-44.35,121.66-35.94c51.81,9.4,106.78,55.23,172.99,144.24
					c0.99,1.33,0.71,3.21-0.62,4.2C889.36,1472,888.73,1472.19,888.11,1472.19z"/>
			</g>
		</g>
		<g>
			<path class="st8" d="M925.68,1546.78c-89.59-285.34-212.62-413.83-393.64-484.83c-181.01-71-198.79-100.59-198.79-100.59
				s108.26,228.57,217.19,281.38c108.93,52.81,246.41,71.01,278.7,107.3c32.29,36.29,78.68,180.96,78.68,180.96l20.09,21.85
				L925.68,1546.78z"/>
			<g>
				<path class="st9" d="M921.06,1532.55c-1.33,0-2.54-0.89-2.9-2.23c-0.12-0.46-12.72-47.14-40.81-106.71
					c-25.88-54.88-70.59-132.26-136.6-189.2c-65.34-56.37-123.52-81.71-179.78-106.21c-53.28-23.21-103.61-45.13-152.91-91.45
					c-1.21-1.13-1.27-3.03-0.13-4.24c1.13-1.21,3.03-1.27,4.24-0.13c48.54,45.61,98.41,67.33,151.2,90.33
					c56.67,24.68,115.27,50.21,181.3,107.17c66.84,57.65,112.02,135.85,138.16,191.3c28.3,60.03,41,107.13,41.13,107.6
					c0.43,1.6-0.52,3.25-2.13,3.67C921.58,1532.52,921.31,1532.55,921.06,1532.55z"/>
			</g>
			<g>
				<path class="st9" d="M627.41,1158.02c-0.3,0-0.6-0.04-0.9-0.14c-0.67-0.21-68.4-21.01-147.02-8.06
					c-1.64,0.27-3.18-0.84-3.45-2.47c-0.27-1.63,0.84-3.18,2.47-3.45c80.09-13.19,149.11,8.04,149.79,8.25
					c1.58,0.5,2.46,2.18,1.96,3.76C629.87,1157.2,628.68,1158.02,627.41,1158.02z"/>
			</g>
			<g>
				<path class="st9" d="M757.94,1248.47c-0.67,0-1.33-0.22-1.89-0.67c-62.26-50.62-113.87-50.35-224.67-44.9
					c-1.67,0.11-3.06-1.2-3.14-2.85c-0.08-1.66,1.19-3.06,2.85-3.14c112.4-5.52,164.78-5.78,228.75,46.23
					c1.29,1.05,1.48,2.94,0.44,4.22C759.67,1248.1,758.81,1248.47,757.94,1248.47z"/>
			</g>
		</g>
	</g>
	<path class="st10" d="M3364.12,1767.49H261.97c-3.59,0-6.5-2.91-6.5-6.5c0-3.59,2.91-6.5,6.5-6.5h3102.15c3.59,0,6.5,2.91,6.5,6.5
		C3370.62,1764.58,3367.71,1767.49,3364.12,1767.49z"/>
	<g>
		<path class="st11" d="M1637.23,401.79c25.91,16.5,75.09,73.23,106.46,106.23c31.37,33,48.37,51.34,48.37,51.34l-387-9.34
			c0,0,21-15.16,40-43c19-27.84,25.35-53.04,78-89C1576.05,381.82,1611.93,385.69,1637.23,401.79z"/>
		<path class="st12" d="M1568.05,415.02c19,0,31,73,40,89c9,16,56.38,19,56.38,19v-30.16c0,0,8.62,22.66,14.62,36.99
			c17-10.82,39.5-23.82,61.51-25.34c2.01,1.11,40.01,40.35,40.01,40.35l-316.52,5.17c0,0-19-10-16-10s26.44-40,45.72-57.5
			S1568.05,415.02,1568.05,415.02z"/>
		<path class="st11" d="M1673.05,535.52c0,0,62-26.5,93-22c31,4.5,39,22,39,22H1673.05z"/>
	</g>
	<g>
		<g>
			<path class="st13" d="M2011.13,1667.39v-219.4h-508.22v219.4h-165.24c-30.68,0-55.54,24.87-55.54,55.54v13.5
				c0,9.97,8.08,18.06,18.06,18.06h913.68c9.97,0,18.06-8.08,18.06-18.06v-13.5c0-30.68-24.87-55.54-55.54-55.54H2011.13z"/>
			<g>
				<polygon class="st14" points="1502.91,1598.39 2011.13,1559.21 2011.13,1466.79 1502.91,1472.17 				"/>
				<polygon class="st14" points="2011.13,1631.42 1502.91,1667.39 2011.13,1667.39 				"/>
			</g>
			<g>
				<path class="st13" d="M2523.99,1498.13H990.06c-15.03,0-27.21-12.18-27.21-27.21V557.06c0-15.03,12.18-27.21,27.21-27.21
					h1533.93c15.03,0,27.21,12.18,27.21,27.21v913.86C2551.2,1485.95,2539.02,1498.13,2523.99,1498.13z"/>
				<path class="st15" d="M2482.08,1400.13H1031.97c-13.52,0-24.48-10.96-24.48-24.49V593.81c0-13.52,10.96-24.49,24.48-24.49
					h1450.11c13.52,0,24.49,10.96,24.49,24.49v781.84C2506.56,1389.17,2495.6,1400.13,2482.08,1400.13z"/>
			</g>
			<path class="st14" d="M1812.56,1466.79h-111.07c-6.11,0-11.11-5-11.11-11.11v-3.35c0-6.11,5-11.11,11.11-11.11h111.07
				c6.11,0,11.11,5,11.11,11.11v3.35C1823.67,1461.79,1818.67,1466.79,1812.56,1466.79z"/>
		</g>
		<g>
			<path class="st0" d="M2234.14,1066.63c-13.23-0.19-26.22,0.36-38.9,1.56c0.74-7.6,1.19-15.27,1.3-23.02
				c2.57-179.29-166.57-327.09-377.8-330.13c-173.18-2.49-320.85,93.12-369.86,226.45c-36.29-14.62-76.67-23.06-119.29-23.67
				c-160.91-2.31-292.95,107.62-294.93,245.54s126.86,251.59,287.76,253.9c108.77,1.56,813.03-2.13,906.79-0.78
				c136.82,1.96,248.84-79.56,250.2-174.47C2480.77,1147.12,2370.96,1068.59,2234.14,1066.63z"/>
			<path class="st16" d="M1812.14,735c2.1,0,4.22,0.02,6.31,0.05c49.32,0.71,97.02,9.58,141.76,26.38
				c43.05,16.16,81.56,38.92,114.44,67.65c32.65,28.53,58.09,61.49,75.62,97.97c18.02,37.49,26.86,77.14,26.27,117.85
				c-0.1,6.95-0.51,14.14-1.21,21.37l-2.34,24.13l24.14-2.29c10.57-1,21.3-1.51,31.9-1.51c1.6,0,3.22,0.01,4.83,0.04
				c31.54,0.45,62.03,5.16,90.62,14c27.32,8.44,51.71,20.26,72.49,35.12c40.83,29.2,63.01,66.84,62.45,106
				c-0.28,19.37-6.03,38.47-17.09,56.77c-11.13,18.41-27.04,35.13-47.29,49.7c-20.84,14.99-45.05,26.81-71.95,35.13
				c-28.29,8.75-58.24,13.18-89.03,13.18c-1.51,0-3.04-0.01-4.55-0.03c-14.22-0.2-42.68-0.3-86.99-0.3
				c-83.05,0-207.25,0.35-338.75,0.71c-135.25,0.38-275.1,0.76-371.21,0.76c-55.6,0-91.53-0.13-109.84-0.39
				c-37-0.53-72.77-7.25-106.33-19.96c-32.25-12.22-61.08-29.42-85.69-51.14c-24.39-21.52-43.39-46.37-56.47-73.87
				c-13.42-28.21-20-58.04-19.56-88.65c0.86-60.09,28.97-116.55,79.14-158.99c24.75-20.93,53.55-37.37,85.61-48.87
				c33.31-11.95,68.71-18,105.21-18c1.56,0,3.14,0.01,4.69,0.03c39.2,0.56,76.92,8.04,112.11,22.22l19.13,7.71l7.12-19.36
				c11.15-30.34,27.9-58.93,49.76-84.96c21.71-25.85,47.97-48.61,78.06-67.65c30.55-19.33,64.31-34.36,100.35-44.68
				C1733.17,740.42,1772.31,735,1812.14,735C1812.14,735,1812.14,735,1812.14,735z M1812.14,715
				c-170.33,0-314.88,94.86-363.26,226.5c-36.29-14.62-76.67-23.06-119.29-23.67c-1.66-0.02-3.32-0.04-4.98-0.04
				c-158.65,0-288,109.08-289.96,245.57c-1.98,137.92,126.86,251.59,287.76,253.9c19.64,0.28,58.74,0.39,110.12,0.39
				c187.69,0,539.75-1.48,709.96-1.48c41.21,0,71.73,0.09,86.7,0.3c1.61,0.02,3.24,0.04,4.84,0.04
				c134.62,0,244.02-80.72,245.36-174.5c1.36-94.9-108.45-173.43-245.27-175.4c-1.71-0.02-3.42-0.04-5.12-0.04
				c-11.46,0-22.74,0.55-33.79,1.6c0.74-7.6,1.19-15.27,1.3-23.02c2.57-179.29-166.57-327.09-377.8-330.13
				C1816.54,715.01,1814.33,715,1812.14,715L1812.14,715z"/>
		</g>
		<g>
			<polygon class="st6" points="2118.92,1400.13 1372.88,1400.13 1372.88,1100.36 1572.46,1030.6 1906.64,1030.6 2118.92,1100.36 
							"/>
			<polygon class="st17" points="1572.46,1030.6 1372.88,1100.36 2118.92,1100.36 1906.64,1030.6 			"/>
			<polygon class="st6" points="1889.16,1074.39 1598.2,1074.39 1650.49,1046.26 1836.88,1046.26 			"/>
			<g>
				<path class="st18" d="M1846.09,1063.33h-201.88c-1.66,0-3-1.34-3-3s1.34-3,3-3h201.88c1.66,0,3,1.34,3,3
					S1847.75,1063.33,1846.09,1063.33z"/>
			</g>
			<path class="st17" d="M1924.69,1326.91h-364.96c-13.39,0-24.34-10.95-24.34-24.34v-62.86c0-13.39,10.95-24.34,24.34-24.34h364.96
				c13.39,0,24.34,10.95,24.34,24.34v62.86C1949.03,1315.95,1938.07,1326.91,1924.69,1326.91z"/>
		</g>
	</g>
	<g>
		<g>
			<path class="st19" d="M1615.73,793.34c10.57-16.21,109.23-45.1,116.27-44.4c7.05,0.71,58.18,115.57,68.91,160.67
				c10.72,45.1,12.13,52.15,12.13,52.15s-114.16,37.35-135.3,40.87c-21.14,3.52-21.14,3.52-21.14,3.52s-10.57-101.48-21.14-138.82
				C1624.89,829.99,1615.73,793.34,1615.73,793.34z"/>
			<g>
				<path class="st13" d="M1689.72,959.33c-1.09,0-2.1-0.72-2.41-1.83c-0.37-1.33,0.4-2.71,1.73-3.08l65.54-18.32
					c1.33-0.38,2.71,0.41,3.08,1.73s-0.4,2.71-1.73,3.08l-65.54,18.32C1690.17,959.3,1689.95,959.33,1689.72,959.33z"/>
			</g>
			<g>
				<path class="st13" d="M1686.2,950.17c-1.08,0-2.08-0.71-2.4-1.81c-0.38-1.33,0.38-2.71,1.71-3.09l63.42-18.32
					c1.32-0.39,2.71,0.38,3.09,1.71c0.38,1.33-0.38,2.71-1.71,3.09l-63.42,18.32C1686.66,950.14,1686.43,950.17,1686.2,950.17z"/>
			</g>
			<g>
				<path class="st13" d="M1674.22,912.12c-1.1,0-2.1-0.73-2.41-1.84c-0.37-1.33,0.41-2.71,1.75-3.08l59.19-16.33
					c1.33-0.37,2.71,0.41,3.08,1.75s-0.41,2.71-1.75,3.08l-59.19,16.33C1674.67,912.09,1674.44,912.12,1674.22,912.12z"/>
			</g>
			<g>
				<path class="st13" d="M1674.22,903.96c-1.09,0-2.1-0.72-2.41-1.83c-0.37-1.33,0.41-2.71,1.74-3.08l59.19-16.5
					c1.33-0.37,2.71,0.41,3.08,1.74c0.37,1.33-0.41,2.71-1.74,3.08l-59.19,16.5C1674.67,903.93,1674.44,903.96,1674.22,903.96z"/>
			</g>
			<g>
				<path class="st13" d="M1660.83,871.25c-1.08,0-2.07-0.7-2.4-1.79c-0.39-1.32,0.36-2.71,1.69-3.11l57.08-16.91
					c1.32-0.39,2.71,0.36,3.11,1.69c0.39,1.32-0.36,2.71-1.69,3.11l-57.08,16.91C1661.31,871.21,1661.07,871.25,1660.83,871.25z"/>
			</g>
			<g>
				<path class="st13" d="M1660.83,862.79c-0.64,0-1.28-0.24-1.77-0.73c-0.98-0.98-0.98-2.56,0-3.54
					c0.56-0.56,1.87-1.87,54.64-16.85c1.33-0.38,2.71,0.4,3.09,1.72c0.38,1.33-0.39,2.71-1.72,3.09
					c-18.91,5.37-49.75,14.35-52.79,15.84C1661.85,862.64,1661.34,862.79,1660.83,862.79z"/>
			</g>
			<g>
				<path class="st17" d="M1755.26,904.46c-0.24,0-0.48-0.03-0.72-0.09c-1.61-0.4-2.59-2.02-2.2-3.63l6.66-27.07
					c0.25-1.03,1.03-1.84,2.04-2.15c1.01-0.31,2.11-0.06,2.89,0.65l11.66,10.57c1.23,1.11,1.32,3.01,0.21,4.24
					c-1.11,1.23-3.01,1.32-4.24,0.21l-7.93-7.19l-5.46,22.19C1757.84,903.54,1756.61,904.46,1755.26,904.46z"/>
			</g>
		</g>
		<path class="st20" d="M1673.42,341.64l-52.71,49.72c-13.69,10.65-15.25,18.77-12.67,35.93c3.19,21.23,8.61,37.41,17.33,37.41
			c15,0,13.67-41.67,13.67-41.67l51.15-51.46L1673.42,341.64z"/>
		<path class="st21" d="M1673.42,341.64l-15.57,12.11c-6.76,20.13-9.38,43.49-8.8,59.21l41.14-41.39L1673.42,341.64z"/>
		<path class="st20" d="M1728.45,391.18c-11,21.51-30.06,39.4-44.83,35.59c-15.3-3.95-30.74-30.08-19.14-53.95
			c11.24-23.13,27.17-40.66,44.83-35.59C1726.98,342.3,1740.16,368.28,1728.45,391.18z"/>
		<path class="st20" d="M1640.05,705.36c18,27.33,34.67,46.67,40,67.33c5.33,20.67-8.67,52.67-17,42
			c-8.33-10.67-19.67-13.51-22.33-43.33c-3.33-37.33-16.67-42.46-16.67-42.46L1640.05,705.36z"/>
		<path class="st11" d="M1573.05,408.39c20,9.64,21,173.64,52,244.64s31.67,71.48,31.67,71.48s-26.77,15.7-32.55,18.4
			c-5.78,2.7-73.38-84.86-86.11-133.88c-23-88.5-45.5-102.5-71-106.5c4.5-13,29-43.5,58-68.5S1573.05,408.39,1573.05,408.39z"/>
		<path class="st20" d="M1728.8,529.85c0,0,18.33-13.82,34.36-11.82c16.02,2,47.52,16.5,41.02,21.5s-24.5,5.5-35.5,0
			S1731.3,527.35,1728.8,529.85z"/>
		<path class="st22" d="M1633.74,379.07c22.97-1.71,34.11-18.52,36.19-21.05c2.08-2.52,3.37,20.05,7.78,21.67
			c4.42,1.62,9.4-10.72,14.87-21.19c5.47-10.47,12.8-9.53,13.47,0c0.67,9.53,7.19,38.21,22.75,44.67
			c12.58,5.22,23.25,7.21,23.25,7.21s-3.75-20.12-2.33-37.35c2.33-28.31-22.29-52.32-41.67-55.67
			c-15.47-2.67-42.26-0.47-53.33,21.33C1644.05,359.69,1633.74,379.07,1633.74,379.07z"/>
		<path class="st20" d="M1678.55,366.29c-2.22,6.75-7.87,10.95-12.63,9.38c-4.76-1.56-6.82-8.3-4.6-15.05
			c2.22-6.75,7.87-10.95,12.63-9.38C1678.71,352.81,1680.77,359.55,1678.55,366.29z"/>
	</g>
	<g>
		<path class="st22" d="M2720.12,874.88c-13.18-10.17-77.66,15.84-78.98,39.6c-1.32,23.76,17.71,74.51,58.96,78.1
			c41.25,3.59,46.2-1.1,49.72-33.66C2753.35,926.36,2738.38,888.96,2720.12,874.88z"/>
		<path class="st23" d="M2897.53,1679.08c0,0,29.33,12.11,24.64,18.38c-4.69,6.26,9.39,42.05,9.39,42.05h-5.87l-11.15-23.01
			c0,0,4.69,27.86-5.28,32.18s-44.59,14.15-42.24,6.09c1.25-4.29,9.53-14.81,9.53-14.81L2897.53,1679.08z"/>
		<path class="st20" d="M2878.92,1684.32c5.11,14.13,0.42,53.43-6.62,61.06s21.71,0.59,26.99-6.45s3.94-53,3.94-53L2878.92,1684.32z
			"/>
		<path class="st23" d="M2559.58,1685.07c0,0,20.07,24.58,12.97,27.87s-11.7,41.47-11.7,41.47l-5.16-2.78l1.11-25.55
			c0,0-9.09,26.75-19.92,25.82c-10.83-0.93-49.3-3.21-40.07-14.69c2.8-3.48,14.53-7.81,14.53-7.81L2559.58,1685.07z"/>
		<path class="st20" d="M2540.72,1680.84c-2.2,14.86-24.99,47.23-34.81,50.6c-9.82,3.37,18.83,10.82,26.82,7.13
			c7.99-3.69,28.62-44.78,28.62-44.78L2540.72,1680.84z"/>
		<path class="st20" d="M2695.71,1231.12c0,0,41.36,208.32,62.48,254.95c15.96,35.24,117.92,209.45,131.13,206.81
			c13.2-2.64,13.92-6.95,13.92-6.95s-38.87-138.71-59.68-167.3c-32.56-44.74-24.64-56.46-25.52-140.06s0.04-85.22-21.98-135.39
			c-22.02-50.16-22.02-50.16-22.02-50.16L2695.71,1231.12z"/>
		<path class="st20" d="M2695.71,1213.9c0,0-96.62,226.4-103.31,250.16c-6.7,23.76-53.34,225.29-53.34,225.29s10.78,9.33,19.05,7.97
			s81.32-139.98,83.25-184.86c1.93-44.88,90.43-138.17,100.99-177.77C2752.91,1295.1,2695.71,1213.9,2695.71,1213.9z"/>
		<path class="st6" d="M2886.23,1318.86c0,0,13.64,113.52,12.76,146.53c-0.88,33,0.04,36.96,0.04,36.96l122.28-18.92
			c0,0-16.28-60.94-22.44-76.67C2992.72,1391.02,2886.23,1318.86,2886.23,1318.86z"/>
		<path class="st0" d="M2889.75,1323.04c0,0,6.71,50.82,13.48,104.5c6.76,53.68,7.21,66.88,7.21,66.88l110.88-15.06L2889.75,1323.04
			z"/>
		<path class="st6" d="M2946.95,1315.12c-5.72,1.54-65.12,0-65.12,0s25.08,82.06,40.04,170.95c63.8-6.7,115.29-8.8,115.29-8.8
			s-27.61-89.76-41.75-120.56c-14.14-30.8-20.3-41.58-20.3-41.58H2946.95z"/>
		<path class="st20" d="M2941.67,1271.68c0,0,14.08,24.3,16.72,40.58c2.64,16.28-0.88,48.4-8.36,48.4c-7.48,0-7.92-2.74-12.76-20.29
			c-4.84-17.55-7.48-24.2-7.48-24.2h-10.56v-46.59L2941.67,1271.68z"/>
		<path class="st24" d="M2778.87,1201.37c2.35,3.02,39.45,64.68,45.32,119.25c5.87,54.56,4.69,146.67,4.69,146.67l-29.42,5.87
			l-17.52-119.68l-7.63,119.68c0,0-32.85,11.73-78.62,2.93c-45.76-8.8-96.22-39.89-96.22-39.89l89.18-214.73L2778.87,1201.37z"/>
		<path class="st25" d="M2745.87,1007.33c0,0,44.88,14.66,49.28,35.05c3.9,18.07-11.28,132.56-14.78,158.33
			c-0.44,3.24-2.5,6.02-5.46,7.4c-14.29,6.6-57.19,25.34-79.2,23.01c-23.76-2.51-54.04-131.14-51.04-144.59
			c4.4-19.71,36.08-67.91,60.72-78.4C2730.03,997.65,2745.87,1007.33,2745.87,1007.33z"/>
		<path class="st20" d="M2715.07,941c0,0,15.4,58.74,24.2,62.26c8.8,3.52-24.2,54.3-43.56,52.92c-19.36-1.39,9.68-48.04,9.68-48.04
			l-19.35-59.53L2715.07,941z"/>
		<path class="st21" d="M2721.58,963.63c-4.75,18.64-11.14,27.33-19.15,35.42l-16.4-50.45l29.03-7.6
			C2715.07,941,2717.32,952.56,2721.58,963.63z"/>
		<path class="st20" d="M2650.38,927.7c-6.9,23.16-5.45,49.26,7.87,56.7c13.79,7.71,43-0.54,51.09-25.81
			c7.84-24.5,8.42-48.17-7.87-56.7C2685.2,893.36,2657.73,903.05,2650.38,927.7z"/>
		<path class="st0" d="M2417.46,919.16l24.06-68.8c0,0-98.76-79.04-152.64-87.66c-30.65-4.9-56.82,2.96-56.82,2.96l-49.99,94.65
			c0,0,90.73,10.42,125.98,39.23c35.25,28.81,72.36,63.02,72.36,63.02S2401.52,953.49,2417.46,919.16z"/>
		<path class="st20" d="M2444.46,935.6c0,0-19.93-20.2-24.64-28.6c-4.71-8.4-15.4-21.56-11.44-9.24c3.96,12.32,4.84,14.52,3.96,24.2
			c-0.88,9.68-7.92,13.64-7.92,13.64l32.56,17.16L2444.46,935.6z"/>
		<path class="st24" d="M2700.1,1008.13c0,0-141.69-7.12-154.89-13.2c-13.2-6.09-105.6-66.79-105.6-66.79s-14.96,19.81-15.84,20.46
			c-0.88,0.65,95.92,77.21,115.29,86.89c19.36,9.68,110,31.31,110,31.31s-16.72,88.74-23.76,109.68s-12.32,27.83-12.32,27.83
			s26.4,5.65,37.84-4.58c11.44-10.23,14.08-88.02,14.08-120.23C2664.9,1047.28,2700.1,1008.13,2700.1,1008.13z"/>
		<path class="st24" d="M2776.23,1016.13c0,0,31.24,10.18,62.48,40.07c31.24,29.89,76.56,70.64,85.36,94.22
			c8.8,23.58,22.88,126.06,22.88,126.06s-24.64,8.35-28.16,4.66c-3.52-3.69-27.72-93.42-40.04-108.81
			c-12.32-15.38-79.29-77.88-79.29-77.88l23.84,91.07c0,0-33.17,21.71-55.75,10.64s-32.41-40.24-47.29-75.81
			c-14.89-35.57,25.59-113.02,25.59-113.02L2776.23,1016.13z"/>
		<path class="st25" d="M2734.43,991.78c1.47,1.76,11.44,15.55,11.44,15.55s-19.93,41.42-28.88,48.87
			c-8.96,7.45-20.4,4.52-20.4,4.52s-24.71-10.23-19.7-19.52c9.91-18.36,23.22-33.06,23.22-33.06l3.07-6.82l2.21,6.82
			c0,0-4.11,5.94-7.33,14.45c-3.23,8.51-2.64,29.92-4.11,32.56c-1.47,2.64,4.11,0.59,7.63-9.97c3.52-10.56,4.4-26.11,4.4-26.11
			s15.55-8.8,20.83-15.25C2732.08,997.35,2734.43,991.78,2734.43,991.78z"/>
		<g>
			<g>
				<path class="st13" d="M2228.95,835.26c-0.44,0-0.89-0.12-1.29-0.36c-1.18-0.71-1.56-2.25-0.85-3.43l32.93-54.51
					c0.71-1.18,2.25-1.56,3.43-0.85c1.18,0.71,1.56,2.25,0.85,3.43l-32.93,54.51C2230.62,834.83,2229.79,835.26,2228.95,835.26z"/>
			</g>
			<g>
				<path class="st13" d="M2298.04,846.52c-0.47,0-0.94-0.13-1.37-0.41c-1.16-0.76-1.48-2.3-0.72-3.46l30.42-46.5
					c0.76-1.16,2.31-1.48,3.46-0.72c1.16,0.76,1.48,2.3,0.72,3.46l-30.42,46.5C2299.66,846.13,2298.86,846.52,2298.04,846.52z"/>
			</g>
			<g>
				<path class="st13" d="M2340.55,864.33c-0.24,0-0.48-0.03-0.71-0.11c-1.32-0.39-2.08-1.79-1.68-3.11
					c0.11-0.37,0.34-1.14,23.75-40.41c0.71-1.19,2.24-1.57,3.43-0.87c1.19,0.71,1.57,2.24,0.87,3.43
					c-8.91,14.94-22.4,37.67-23.34,39.53C2342.46,863.73,2341.54,864.33,2340.55,864.33z"/>
			</g>
			<g>
				<path class="st13" d="M2248.58,837.73c-0.43,0-0.86-0.11-1.26-0.34c-1.19-0.7-1.6-2.23-0.9-3.42l32.21-55.21
					c0.7-1.19,2.23-1.59,3.42-0.9c1.19,0.7,1.6,2.23,0.9,3.42l-32.21,55.21C2250.28,837.29,2249.44,837.73,2248.58,837.73z"/>
			</g>
			<g>
				<path class="st13" d="M2286.72,841.63c-0.45,0-0.91-0.12-1.32-0.38c-1.17-0.73-1.54-2.27-0.81-3.44
					c1.1-1.78,27.01-43.57,29.42-46.85c0.82-1.11,2.38-1.36,3.49-0.54c1.11,0.82,1.35,2.38,0.54,3.49
					c-1.83,2.49-19.9,31.52-29.19,46.52C2288.37,841.21,2287.56,841.63,2286.72,841.63z"/>
			</g>
			<g>
				<path class="st17" d="M2308.62,891.88c-1.43,0-2.7-1.03-2.95-2.49c-0.28-1.63,0.81-3.18,2.45-3.47l14.13-2.44l-13.2-27.09
					c-0.73-1.49-0.11-3.29,1.38-4.01c1.49-0.72,3.28-0.11,4.01,1.38l14.95,30.68c0.41,0.85,0.4,1.84-0.03,2.68
					c-0.43,0.84-1.23,1.43-2.16,1.59l-18.07,3.12C2308.96,891.87,2308.79,891.88,2308.62,891.88z"/>
			</g>
			<g>
				<path class="st13" d="M2331.82,857.58c-0.44,0-0.89-0.12-1.29-0.36c-1.18-0.71-1.56-2.25-0.84-3.43l22.73-37.51
					c0.71-1.18,2.25-1.56,3.43-0.84c1.18,0.71,1.56,2.25,0.84,3.43l-22.73,37.51C2333.49,857.15,2332.67,857.58,2331.82,857.58z"/>
			</g>
			<g>
				<path class="st13" d="M2372.04,896.46c-0.42,0-0.85-0.11-1.25-0.33c-1.2-0.69-1.61-2.22-0.92-3.42l25.39-43.95
					c0.69-1.2,2.22-1.6,3.42-0.91c1.2,0.69,1.61,2.22,0.92,3.41l-25.39,43.95C2373.74,896.01,2372.9,896.46,2372.04,896.46z"/>
			</g>
			<g>
				<path class="st13" d="M2389.47,901.38c-0.42,0-0.84-0.1-1.23-0.32c-1.2-0.68-1.63-2.2-0.95-3.41l21.6-38.27
					c0.68-1.2,2.21-1.63,3.41-0.95c1.2,0.68,1.63,2.2,0.95,3.41l-21.6,38.27C2391.19,900.92,2390.34,901.38,2389.47,901.38z"/>
			</g>
		</g>
		<path class="st22" d="M2646.42,916.24c11.88,24.2,64.99,22.58,64.62,25.81c-0.38,3.23,9.74,50.02,21.63,49.73
			c11.88-0.29-11.08-97.54-11.08-97.54l-49.2,2.2L2646.42,916.24z"/>
		<path class="st22" d="M2743.55,911.13c19.92-8.09,23.44-5.01,30.04,5.55c6.6,10.56,14.08,14.75,12.76,24.31
			c-1.32,9.57,0.88,19.44-3.08,29.02c-3.96,9.58-17.6,10.46-29.04,16.18c-11.44,5.72-16.89-11.02-16.89-11.02L2743.55,911.13z"/>
		<path class="st20" d="M2704.4,944.79c-1.76,7.24,0.84,14.09,5.8,15.29c4.96,1.2,10.4-3.69,12.16-10.94
			c1.76-7.24-0.84-14.09-5.8-15.29C2711.6,932.65,2706.16,937.55,2704.4,944.79z"/>
	</g>
	<g>
		<path class="st26" d="M998.35,1707.94c0,0,6.41,24.75,28.22,31c21.81,6.25,43.07,18.39,12.43,18.76
			c-33.61,0.41-52.87-1.17-66.84-3.52c-13.97-2.34-4.82-26.96-2.6-38.69C971.78,1703.77,998.35,1707.94,998.35,1707.94z"/>
		<path class="st26" d="M820.62,1687.82c0,0-4.67,49.44,7.22,53.69c11.89,4.25,25.47,14.44,8.49,14.44
			c-16.98,0-37.99,4.01-43.49-14.44c-6.7-22.5-21.86-26.3-16.46-37.75c5.41-11.45,21.74-32.73,21.74-32.73L820.62,1687.82z"/>
		<path class="st27" d="M1047.85,1172.11l-43.16,546.31c0,0-22.42,10.36-38.58,11.92c-16.16,1.56-49.58-261.81-46.75-303.92
			c2.83-42.11-29.2-175.83-21.78-219.18C905,1163.92,1047.85,1172.11,1047.85,1172.11z"/>
		<path class="st26" d="M961.5,1175c3.04-0.41,6.11-0.77,9.18-1.1l74.56,28.85l-13.75,161.14
			c-35.73,78.53-78.49,152.65-99.96,200.57c-9.78-56.99-13.47-118.44-12.15-138.03c1.36-20.28-5.36-61.81-11.87-104.25L961.5,1175z"
			/>
		<path class="st27" d="M1026.57,1254.66c-41.84,185.99-206.42,445.56-206.24,445.56c0.18,0-30.75-5.34-32.31-19.41
			c-1.56-14.07,17.65-187.09,59.49-227.81c41.84-40.72,44.7-234.03,44.7-234.03L1026.57,1254.66z"/>
		<path class="st28" d="M927.92,994.66c-47.06,47.33-77.25,128.72-77.66,148.86c-0.41,20.14,54.27,56.08,54.27,56.08L927.92,994.66z
			"/>
		<polygon class="st20" points="980.87,890.21 962.23,982.95 1013.2,1037.82 1019.98,925.37 		"/>
		<path class="st2" d="M962.23,954.03c0,0-24.04,8.44-50.8,76.36c-26.76,67.93-45.35,235.31-45.35,235.31s51.41,43.66,125.02,43.63
			c46.91-0.01,70.59-10.55,70.59-10.55s4.69-157.77,0-214.71C1057.01,1027.13,985.45,952.59,962.23,954.03z"/>
		<path class="st28" d="M1061.7,1084.07c-4.69-56.95-76.24-131.48-99.47-130.05c0,0-9.97,3.5-24.22,24.14
			c24.03-11.69,53.97,8.7,81.97,74.7c14.01,33.02,28.87,80.52,43.71,90.88C1063.49,1120.11,1062.91,1098.75,1061.7,1084.07z"/>
		<path class="st21" d="M1000.44,968.26c-15.14-17.64-20.76-44.6-22.85-61.76l2.94-14.65l3.79,1.48l35.65,32.04l-3.49,57.85
			C1011.52,979.68,1006.09,974.84,1000.44,968.26z"/>
		<path class="st20" d="M992.51,910.64c5.85,27.6,31.27,42.85,52.37,38.38c21.1-4.47,25.72-31.21,19.86-58.81
			c-5.85-27.6-23.53-42.11-44.63-37.64C999.02,857.04,986.66,883.04,992.51,910.64z"/>
		<path class="st2" d="M969.43,933.08l-15.97,26.98l84.64,63.28c0,0-6.37-29.33-8.08-40.12
			C1028.31,972.43,970.78,930.81,969.43,933.08z"/>
		<path class="st29" d="M1069.67,833.82c35.55,11.18,6.49,55.98-4.93,56.39c-11.42,0.41-15.59-10.23-24.97-7.78
			c-9.38,2.45-18.24-14.22-23.97-10.57c-5.73,3.65-2.08,37.52,0,43.25c2.08,5.73-7.29,6.25-7.29,6.25s-3.82-23.97-9.73-22.41
			c-5.91,1.56-10.29,18.24-18.78,22.41c-8.49,4.17-8.49,4.17-8.49,4.17s-5.21-36.17-13.03-43.1c-7.82-6.93-2.92-30.89,8.18-35.58
			c11.1-4.69,13.78-26.05,29.11-27.62c15.34-1.56,27.84,8.86,48.16,6.25C1064.27,822.88,1059.73,830.7,1069.67,833.82z"/>
		<path class="st20" d="M983.54,904.82c2.92,6.88,9.43,10.7,14.53,8.54c5.1-2.17,6.86-9.5,3.94-16.39
			c-2.92-6.88-9.43-10.7-14.53-8.54C982.38,890.6,980.62,897.94,983.54,904.82z"/>
		<path class="st28" d="M944.93,1004.48c0,0,87.22,97,118.62,127c0.43,27.93,0.21,60.48-0.2,89.41
			c-17.01-8.37-64.28-32.85-91.19-58.8C938.93,1130.05,924.1,1056.58,944.93,1004.48z"/>
		<path class="st19" d="M1201.35,1132.22c5.76-35.81,70.75-140.06,95.29-152.09c13.54-6.64,135.72,13.96,135.72,13.96
			s-138.61,120.32-156.42,184.81c-15.91,57.62-13.96,79.43-13.96,79.43l-55.99-40.92C1206,1217.41,1192.68,1186.12,1201.35,1132.22z
			"/>
		<path class="st20" d="M1185.96,1131.43c0,0,20.86-25.83,29.18-23.34c8.32,2.49,11.46,2.89,18.76,2.49s7.82,10.14-2.61,29.1
			c-10.42,18.96-38.56,22.76-45.33,22.42C1179.18,1161.76,1185.96,1131.43,1185.96,1131.43z"/>
		<path class="st2" d="M954.67,983.22c-33.73,8.97-22.75,94.47-3.75,129.78c13.66,25.37,59.3,51.25,87.18,58.5
			c27.88,7.26,148.81-7.82,148.81-7.82s4.45-39.87-3.97-39.87s-108.27-2.31-135.1-26.56C1021.02,1072.99,995.4,972.39,954.67,983.22
			z"/>
		<g>
			<path class="st19" d="M1206,1130.78c-8.99-5.78,11.81-38.93,11.81-38.93h23.96c0,0-7.71,9.08-19.01,18.23
				S1206,1130.78,1206,1130.78z"/>
			<g>
				<path class="st13" d="M1372.45,1027.87c-0.16,0-0.31-0.01-0.47-0.04l-57.05-10.83c-1.36-0.26-2.25-1.57-1.99-2.92
					c0.26-1.36,1.57-2.25,2.92-1.99l57.05,10.83c1.36,0.26,2.25,1.57,1.99,2.92C1374.67,1027.04,1373.62,1027.87,1372.45,1027.87z"
					/>
			</g>
			<g>
				<path class="st13" d="M1343.92,1058.92c-0.29,0-0.58-0.05-0.86-0.16l-45.11-16.6c-1.3-0.48-1.96-1.91-1.48-3.21
					c0.48-1.3,1.92-1.96,3.21-1.48l45.11,16.6c1.3,0.48,1.96,1.91,1.48,3.21C1345.89,1058.29,1344.94,1058.92,1343.92,1058.92z"/>
			</g>
			<g>
				<path class="st13" d="M1335.63,1067.58c-0.28,0-0.57-0.05-0.85-0.15c-13.71-4.99-40.22-14.59-42.45-15.25
					c-1.32-0.39-2.08-1.79-1.68-3.11c0.39-1.32,1.78-2.08,3.11-1.68c2.92,0.87,41.11,14.75,42.73,15.35c1.3,0.47,1.97,1.91,1.5,3.2
					C1337.61,1066.95,1336.65,1067.58,1335.63,1067.58z"/>
			</g>
			<g>
				<path class="st13" d="M1303.14,1105.69c-0.33,0-0.66-0.06-0.98-0.2c-13.59-5.76-36.05-15.09-38.5-15.58
					c-1.35-0.27-2.23-1.59-1.96-2.94c0.27-1.35,1.59-2.23,2.94-1.96c3.67,0.73,33.52,13.36,39.47,15.88
					c1.27,0.54,1.86,2.01,1.33,3.28C1305.04,1105.12,1304.11,1105.69,1303.14,1105.69z"/>
			</g>
			<g>
				<path class="st13" d="M1298.81,1113.81c-0.32,0-0.65-0.06-0.96-0.19l-38.26-15.98c-1.27-0.53-1.88-2-1.34-3.27
					c0.53-1.27,1.99-1.88,3.27-1.34l38.26,15.98c1.27,0.53,1.88,2,1.34,3.27C1300.71,1113.23,1299.79,1113.81,1298.81,1113.81z"/>
			</g>
			<g>
				<path class="st13" d="M1381.35,1018.49c-0.15,0-0.31-0.01-0.47-0.04l-59.99-11.31c-1.36-0.26-2.25-1.56-1.99-2.92
					c0.26-1.36,1.56-2.25,2.92-1.99l59.99,11.31c1.36,0.26,2.25,1.56,1.99,2.92C1383.58,1017.65,1382.53,1018.49,1381.35,1018.49z"
					/>
			</g>
			<g>
				<path class="st13" d="M1275.46,1139.29c-0.32,0-0.64-0.06-0.95-0.19l-27.43-11.31c-1.28-0.53-1.88-1.99-1.36-3.26
					c0.53-1.28,1.98-1.88,3.26-1.36l27.43,11.31c1.28,0.53,1.88,1.99,1.36,3.26C1277.38,1138.71,1276.45,1139.29,1275.46,1139.29z"
					/>
			</g>
			<g>
				<path class="st13" d="M1270.17,1151.08c-0.35,0-0.71-0.07-1.05-0.23l-25.51-11.79c-1.25-0.58-1.8-2.07-1.22-3.32
					c0.58-1.25,2.06-1.8,3.32-1.22l25.51,11.79c1.25,0.58,1.8,2.07,1.22,3.32C1272.02,1150.55,1271.11,1151.08,1270.17,1151.08z"/>
			</g>
			<g>
				<path class="st13" d="M1255.97,1195.36c-0.34,0-0.69-0.07-1.02-0.22l-34.89-15.64c-1.26-0.56-1.82-2.04-1.26-3.3
					c0.57-1.26,2.05-1.82,3.3-1.26l34.89,15.64c1.26,0.56,1.82,2.04,1.26,3.3C1257.84,1194.81,1256.93,1195.36,1255.97,1195.36z"/>
			</g>
			<g>
				<path class="st13" d="M1250.68,1205.95c-0.34,0-0.68-0.07-1.01-0.21c-31.72-14.04-32.4-14.5-32.62-14.64
					c-1.15-0.77-1.46-2.32-0.69-3.47c0.74-1.11,2.21-1.43,3.34-0.77c1.44,0.74,19.87,8.94,32,14.31c1.26,0.56,1.83,2.04,1.27,3.3
					C1252.55,1205.4,1251.64,1205.95,1250.68,1205.95z"/>
			</g>
			<g>
				<path class="st17" d="M1261.75,1047.87c-0.62,0-1.24-0.19-1.76-0.57c-0.9-0.66-1.37-1.76-1.2-2.87l2.41-16.12
					c0.24-1.64,1.77-2.77,3.41-2.52c1.64,0.24,2.77,1.77,2.52,3.41l-1.56,10.44l30.22-15.01c1.48-0.74,3.28-0.13,4.02,1.35
					c0.74,1.48,0.13,3.28-1.35,4.02l-35.38,17.57C1262.66,1047.76,1262.2,1047.87,1261.75,1047.87z"/>
			</g>
		</g>
	</g>
</g>
</svg>
